<?xml version="1.0" standalone="no"?>
<!DOCTYPE svg PUBLIC "-//W3C//DTD SVG 20010904//EN"
 "http://www.w3.org/TR/2001/REC-SVG-20010904/DTD/svg10.dtd">
<svg version="1.0" xmlns="http://www.w3.org/2000/svg"
 width="2800.000000pt" height="2800.000000pt" viewBox="0 0 2800.000000 2800.000000"
 preserveAspectRatio="xMidYMid meet">

<g transform="translate(0.000000,2800.000000) scale(0.100000,-0.100000)"
fill="#000000" stroke="none">
<path d="M13095 27223 c-282 -33 -546 -129 -770 -278 -136 -90 -227 -174 -359
-329 -156 -184 -440 -552 -580 -753 -55 -79 -58 -82 -104 -88 -135 -17 -277
-69 -417 -155 -77 -47 -333 -238 -435 -325 -87 -74 -81 -71 -820 -376 -80 -33
-200 -89 -268 -124 -89 -47 -122 -60 -118 -47 6 19 63 333 68 372 5 39 -21 30
-46 -15 -78 -145 -132 -243 -227 -415 l-109 -195 -177 -171 c-257 -246 -544
-500 -576 -508 -18 -4 -27 -13 -27 -26 0 -11 -28 -57 -63 -103 -165 -216 -228
-388 -230 -632 -2 -142 3 -191 34 -311 41 -158 47 -180 59 -209 6 -16 11 -30
10 -30 -1 0 5 -25 15 -55 9 -30 18 -66 21 -80 2 -14 9 -36 14 -50 8 -24 53
-170 55 -180 2 -12 66 -201 85 -252 l21 -57 -66 -93 c-37 -51 -73 -104 -80
-119 -8 -14 -80 -83 -162 -154 -185 -161 -407 -383 -456 -455 -53 -79 -77
-152 -77 -235 0 -88 17 -235 35 -300 8 -27 16 -61 19 -75 6 -36 27 -122 33
-140 10 -24 12 -32 27 -94 8 -33 19 -71 24 -85 5 -14 20 -60 32 -101 13 -41
25 -82 28 -90 3 -8 6 -21 8 -28 1 -8 9 -28 17 -45 9 -18 19 -45 23 -62 4 -16
11 -35 16 -41 5 -7 11 -21 13 -33 14 -75 123 -241 158 -241 10 0 48 -155 52
-215 1 -13 32 -155 47 -215 29 -119 92 -333 131 -445 51 -147 159 -452 177
-500 10 -27 44 -120 76 -205 56 -153 153 -407 179 -465 30 -69 34 -100 40
-310 3 -121 8 -238 10 -260 2 -22 6 -71 10 -110 3 -38 8 -85 12 -104 6 -33 6
-33 -27 -26 -90 20 -490 -1 -506 -26 -3 -5 -12 -9 -21 -9 -17 0 -103 -38 -103
-46 0 -2 6 -1 14 2 8 3 17 0 21 -6 4 -6 1 -9 -7 -8 -8 2 -13 -6 -12 -19 0 -13
-3 -23 -8 -23 -4 0 -8 -9 -8 -20 0 -11 -7 -20 -16 -20 -8 0 -13 -4 -10 -8 3
-5 -8 -16 -25 -26 -16 -9 -29 -21 -29 -27 0 -5 -5 -9 -11 -9 -22 0 -212 -209
-276 -302 -20 -29 -39 -55 -42 -58 -23 -19 -141 -248 -172 -332 -63 -170 -117
-351 -134 -448 -25 -143 -32 -383 -14 -485 6 -33 11 -67 10 -75 0 -35 44 -214
82 -335 54 -173 91 -273 139 -374 22 -46 41 -91 43 -100 6 -30 25 -73 44 -100
15 -21 40 -87 45 -121 1 -3 5 -10 9 -17 4 -6 10 -32 14 -58 l6 -47 -35 5 c-25
3 -35 1 -35 -9 0 -8 4 -14 9 -14 4 0 8 -5 8 -11 0 -35 152 -185 245 -243 200
-122 477 -214 760 -251 131 -17 368 -26 379 -14 3 3 -10 84 -30 180 -111 552
-152 1178 -170 2564 -3 281 -8 521 -10 535 -8 54 -4 1086 6 1280 38 769 79
1128 170 1475 46 177 92 294 139 352 17 21 48 60 70 87 22 27 59 88 84 135 88
171 160 297 205 361 26 36 63 90 83 120 91 140 424 505 708 778 97 93 192 182
211 198 19 16 72 63 118 105 87 81 290 229 313 229 8 0 31 9 52 20 41 22 179
72 352 126 267 85 392 123 415 128 42 8 204 53 230 64 31 12 92 31 122 38 13
3 50 12 83 20 79 18 193 49 229 63 80 32 279 24 612 -24 109 -16 437 -20 514
-6 108 19 509 105 555 118 40 12 129 16 435 18 592 4 882 34 976 100 l46 33
97 -45 c97 -45 119 -54 341 -141 276 -108 1093 -339 1305 -368 28 -3 58 -11
68 -16 50 -26 394 -291 500 -386 402 -358 863 -844 1005 -1060 24 -37 60 -89
80 -116 34 -46 59 -90 193 -341 34 -63 87 -142 124 -185 53 -61 72 -94 104
-175 74 -189 129 -434 171 -755 58 -453 95 -1240 83 -1797 -5 -240 -3 -323 5
-323 13 0 54 60 76 114 16 39 21 45 74 89 32 25 32 27 10 27 -46 0 -50 10 -39
96 14 104 30 356 32 518 l2 129 82 206 c94 237 322 861 395 1080 86 261 165
579 195 784 6 38 13 51 34 61 57 30 93 90 168 285 129 333 255 837 257 1021 0
81 -4 104 -26 158 -54 127 -192 277 -501 547 -120 104 -150 137 -228 248 l-90
128 25 62 c37 95 150 458 229 742 85 301 88 494 11 725 -39 118 -86 203 -180
326 -35 46 -64 93 -64 104 0 13 -9 22 -27 26 -24 6 -118 85 -347 293 -38 34
-146 136 -238 225 l-169 161 -83 150 c-46 83 -127 229 -179 325 -90 164 -126
210 -119 150 5 -40 62 -353 68 -373 4 -13 -21 -3 -98 37 -129 68 -213 105
-557 246 l-273 112 -137 137 c-146 147 -251 227 -430 327 -314 175 -720 273
-1088 263 l-130 -4 -64 94 c-222 324 -525 518 -889 571 -59 8 -680 50 -752 50
-14 0 -16 6 -11 31 5 26 -3 43 -53 117 -162 239 -380 379 -709 457 -157 38
-363 54 -490 38z m-4492 -4884 c-6 -41 -12 -54 -25 -54 -10 0 -38 -22 -63 -50
l-46 -50 22 45 c31 63 112 185 116 174 2 -6 0 -35 -4 -65z m10840 4 c25 -38
54 -88 66 -113 l22 -45 -49 54 c-27 30 -54 51 -60 47 -6 -3 -13 2 -15 11 -9
31 -18 113 -13 113 2 0 25 -30 49 -67z"/>
<path d="M11640 19556 c-568 -55 -1054 -234 -1402 -514 -223 -181 -316 -355
-306 -577 5 -100 25 -159 74 -211 16 -18 30 -38 31 -45 5 -37 31 -130 40 -141
5 -7 16 -29 23 -48 7 -19 24 -49 37 -67 12 -17 23 -39 23 -49 0 -10 3 -15 6
-12 3 3 21 -9 39 -28 19 -19 42 -34 52 -34 14 0 15 -2 5 -9 -10 -6 -6 -11 17
-19 17 -6 31 -16 31 -22 0 -6 5 -8 10 -5 19 12 80 13 80 1 0 -12 25 -16 107
-17 41 -1 52 -5 56 -20 4 -14 14 -19 40 -19 20 0 38 -6 41 -12 4 -7 5 -4 3 7
-4 19 2 20 91 22 71 1 97 5 103 15 6 11 26 14 80 12 46 -1 67 2 58 8 -10 6 -7
8 11 6 14 -2 24 -9 23 -15 -2 -7 4 -10 12 -7 12 5 20 37 17 66 -1 3 5 9 13 12
9 3 15 -1 15 -9 0 -8 9 -15 20 -15 11 0 20 4 20 8 0 19 61 42 112 42 41 0 60
5 77 21 13 12 30 19 42 16 10 -3 22 -1 25 4 3 5 16 9 28 9 14 0 30 10 41 26
10 15 22 23 31 20 8 -3 14 1 14 8 0 13 60 48 77 45 4 -1 26 6 48 16 22 10 45
19 50 21 74 15 137 42 209 89 12 8 25 12 29 9 8 -9 107 16 107 27 0 5 3 8 8 7
16 -4 138 34 182 56 14 7 86 32 160 56 74 24 152 54 172 66 21 13 41 24 45 24
5 0 33 23 63 50 30 27 63 52 72 55 9 3 32 20 51 38 18 18 64 59 101 91 83 74
119 124 142 202 51 175 -12 400 -152 540 -97 97 -213 148 -435 190 -114 22
-582 28 -769 10z"/>
<path d="M15725 19560 c-306 -28 -501 -108 -616 -252 -76 -97 -113 -187 -129
-315 -25 -201 47 -380 180 -448 95 -48 281 -69 695 -80 121 -3 276 -10 345
-16 192 -16 410 -40 460 -50 25 -5 90 -16 145 -24 107 -17 295 -60 440 -101
50 -14 162 -43 249 -66 139 -35 171 -39 245 -36 63 3 100 10 136 27 28 13 65
30 84 39 135 62 146 359 21 566 -72 121 -281 297 -484 410 -327 181 -649 279
-1091 331 -156 19 -541 27 -680 15z"/>
<path d="M10853 17739 c-1 -12 -1 -20 0 -18 2 2 9 12 16 22 11 14 11 17 -1 17
-7 0 -14 -10 -15 -21z"/>
<path d="M11360 17721 c0 -11 26 -22 34 -14 3 3 3 10 0 14 -7 12 -34 11 -34 0z"/>
<path d="M11333 17713 c9 -2 17 -9 17 -15 0 -5 -7 -8 -15 -4 -9 3 -15 0 -15
-9 0 -18 -20 -31 -29 -17 -4 7 -19 7 -41 2 l-35 -8 33 -1 c22 -1 32 -6 32 -17
0 -11 -6 -14 -21 -9 -13 5 -19 3 -15 -3 8 -13 -20 -36 -34 -27 -5 3 -15 -5
-22 -19 -7 -16 -19 -26 -32 -26 -17 0 -18 -2 -6 -10 8 -5 10 -10 4 -10 -28 0
-203 -175 -226 -225 -6 -14 -15 -25 -21 -25 -5 0 -6 -7 -3 -16 3 -8 2 -12 -4
-9 -6 3 -10 -1 -10 -9 0 -24 -22 -66 -31 -60 -5 3 -9 -3 -9 -12 0 -20 -22 -87
-31 -94 -3 -3 -6 -12 -7 -20 -2 -21 -10 -84 -12 -90 -1 -3 -4 -21 -5 -40 -2
-19 -11 -73 -21 -120 -13 -66 -17 -138 -18 -320 0 -247 9 -330 54 -471 11 -34
18 -64 16 -67 -3 -2 9 -25 25 -52 16 -26 29 -51 29 -55 0 -8 25 -38 86 -100
38 -40 117 -84 209 -116 28 -10 90 -14 215 -14 167 0 179 1 260 29 148 50 228
93 340 182 210 166 335 391 386 694 15 92 16 123 6 246 -25 301 -122 531 -289
684 -77 71 -220 158 -298 182 -74 23 -138 38 -160 38 -13 0 -26 4 -29 9 -3 4
-17 6 -31 3 -14 -2 -32 1 -40 8 -8 7 -15 8 -15 3 0 -16 -130 -15 -156 2 -13 8
-29 14 -36 14 -7 -1 -5 -3 5 -6z m447 -204 c111 -30 201 -82 301 -173 102 -94
131 -130 166 -206 82 -181 111 -415 70 -553 -20 -67 -69 -129 -87 -111 -11 11
-28 103 -60 314 -7 47 -23 135 -36 195 -61 292 -67 308 -133 352 -46 31 -150
60 -246 68 -121 10 -161 23 -195 62 -32 36 -38 58 -17 66 32 14 167 6 237 -14z
m-826 -424 c6 -19 8 -125 6 -280 -6 -363 -5 -649 2 -734 11 -127 -21 -157 -75
-70 -84 136 -109 489 -56 799 11 63 21 122 23 130 38 139 58 191 73 188 9 -2
21 -16 27 -33z"/>
<path d="M16234 17615 c-191 -41 -374 -173 -473 -339 -97 -163 -143 -353 -144
-591 0 -148 2 -169 31 -279 53 -204 141 -358 276 -491 129 -126 292 -207 483
-240 332 -58 623 60 737 297 94 195 120 519 67 829 -51 296 -138 479 -296 627
-79 75 -126 105 -218 143 -137 57 -324 74 -463 44z m252 -96 c7 -6 18 -26 24
-44 12 -35 20 -40 117 -65 135 -34 241 -245 272 -545 24 -217 19 -280 -29
-374 -36 -72 -75 -106 -147 -127 -160 -47 -199 19 -299 506 -50 247 -63 313
-73 385 -15 108 -26 117 -134 123 -63 3 -103 -1 -165 -17 -95 -25 -92 -24 -92
-10 0 37 137 123 244 154 120 35 249 41 282 14z"/>
<path d="M19770 16146 c-5 -5 -10 -7 -10 -3 0 17 -117 -38 -140 -66 -14 -17
-33 -39 -43 -49 -10 -10 -16 -22 -13 -27 3 -4 -4 -21 -14 -39 -16 -26 -18 -46
-16 -125 4 -89 5 -96 40 -145 20 -29 36 -54 36 -57 0 -7 15 -26 46 -60 12 -13
20 -26 17 -29 -3 -2 13 -22 34 -43 21 -21 50 -57 63 -78 13 -22 35 -52 50 -68
14 -15 25 -30 25 -34 0 -4 15 -22 33 -41 17 -19 32 -39 32 -44 0 -5 11 -20 25
-34 14 -14 25 -32 25 -40 0 -8 7 -17 15 -20 8 -4 15 -15 15 -27 0 -11 10 -34
23 -51 13 -17 40 -64 60 -105 21 -41 41 -79 46 -85 11 -14 43 -114 47 -146 14
-112 16 -145 16 -216 1 -78 -7 -125 -40 -244 -8 -30 -16 -68 -18 -84 -2 -16
-13 -58 -23 -93 -10 -34 -15 -63 -10 -63 5 0 8 -5 7 -12 -2 -6 6 -14 17 -16
11 -2 27 -10 35 -17 25 -21 45 -24 93 -13 36 7 57 21 101 66 56 58 141 172
128 172 -4 0 -2 4 4 8 17 11 101 176 118 229 8 26 24 75 36 108 72 195 84 491
30 720 -61 261 -215 540 -372 675 -48 41 -144 110 -154 110 -2 0 -23 9 -47 19
-118 54 -293 91 -317 67z"/>
<path d="M13177 14502 c-4 -5 -21 -17 -39 -26 -51 -26 -72 -40 -85 -57 -7 -9
-24 -20 -38 -23 -13 -3 -41 -17 -61 -31 -20 -14 -45 -25 -55 -25 -11 0 -19 -5
-19 -11 0 -5 -4 -8 -9 -4 -5 3 -13 1 -16 -5 -4 -6 -21 -9 -38 -6 -18 3 -84 10
-147 16 -63 7 -123 16 -132 21 -9 5 -34 9 -54 9 -32 0 -45 -7 -81 -46 -24 -25
-43 -52 -43 -60 0 -7 -4 -14 -9 -14 -5 0 -16 -12 -24 -27 -35 -69 -54 -93 -84
-107 -36 -17 -38 -22 -22 -63 14 -34 17 -114 6 -130 -4 -6 -4 -14 1 -17 5 -3
7 -21 6 -40 -2 -20 1 -36 5 -36 5 0 7 -11 6 -25 -2 -14 1 -27 6 -31 14 -8 11
-24 -3 -19 -17 7 -16 -52 1 -83 11 -21 8 -26 -12 -23 -5 1 -6 -3 -3 -8 3 -5 8
-26 12 -47 3 -22 9 -43 12 -49 4 -5 8 -21 10 -35 2 -14 13 -33 25 -42 19 -14
23 -15 30 -2 4 8 11 14 15 14 8 0 37 -62 34 -73 -1 -4 9 -12 23 -19 13 -6 22
-16 18 -21 -4 -6 0 -8 10 -4 11 4 17 1 17 -8 0 -10 6 -12 18 -8 15 6 15 5 3
-10 -12 -15 -11 -17 3 -17 10 0 14 -4 11 -10 -3 -5 0 -10 8 -10 8 0 20 -6 26
-14 7 -8 20 -12 30 -9 11 3 21 -2 24 -11 4 -9 11 -16 18 -16 6 0 20 -11 30
-24 12 -16 34 -26 64 -30 25 -4 43 -11 40 -17 -4 -5 11 -10 32 -10 38 -1 38
-1 8 -9 -16 -4 -24 -8 -16 -9 8 0 19 -8 26 -17 6 -9 29 -18 51 -21 21 -2 40
-8 42 -13 2 -5 9 -7 16 -4 8 3 20 -1 27 -8 8 -8 30 -15 49 -16 19 -1 44 -6 55
-11 53 -25 89 -31 97 -19 6 10 8 10 8 0 0 -8 10 -13 23 -12 36 3 44 -1 17 -10
-21 -8 -19 -9 15 -8 22 1 45 -1 50 -4 13 -8 129 -11 295 -8 25 1 83 13 130 27
47 14 92 27 100 28 26 4 130 56 130 66 0 14 30 11 30 -3 1 -8 6 -6 14 5 7 9
22 17 32 18 14 1 13 3 -6 9 -18 6 -20 8 -7 9 10 1 32 8 50 17 17 10 44 17 59
16 15 0 31 4 34 10 4 7 2 8 -4 4 -7 -4 -12 -1 -12 8 0 9 8 16 18 16 9 0 51 20
92 45 41 25 80 45 86 45 18 0 74 31 74 41 0 5 6 9 14 9 8 0 18 9 21 20 3 11
15 20 26 20 12 0 19 7 19 20 0 11 7 21 15 22 8 0 21 1 28 2 6 1 19 9 28 18 9
10 19 15 23 11 3 -3 6 0 6 8 0 14 100 89 118 89 4 0 27 18 51 39 24 22 71 54
105 72 108 57 305 230 342 300 l15 30 -56 -2 c-31 -1 -58 -6 -61 -10 -2 -4
-34 -8 -72 -8 -37 0 -88 -3 -114 -5 -27 -3 -48 -1 -48 4 0 5 -7 7 -15 4 -8 -4
-37 6 -65 20 -27 14 -59 26 -70 26 -11 0 -29 9 -40 20 -12 12 -20 15 -20 8 0
-10 -2 -10 -8 -2 -4 7 -27 18 -52 25 -25 7 -54 20 -65 29 -11 10 -26 15 -32
13 -7 -3 -13 -1 -13 5 0 5 -6 9 -12 9 -7 0 -33 5 -57 11 -24 6 -50 8 -57 5 -8
-3 -14 0 -14 6 0 6 -7 8 -17 4 -10 -4 -14 -2 -10 4 6 10 -40 35 -68 37 -5 1
-21 11 -35 24 -26 25 -100 62 -123 62 -7 0 -17 3 -21 8 -4 4 -11 7 -14 7 -4 1
-29 11 -56 23 -27 12 -54 22 -60 22 -7 0 -16 4 -22 9 -5 5 -27 11 -49 12 -22
2 -42 6 -45 9 -8 9 -159 60 -260 87 -103 27 -302 43 -313 25z"/>
<path d="M20200 13180 c-33 -11 -217 -58 -255 -65 -16 -3 -41 -8 -55 -11 -160
-33 -287 -44 -555 -47 l-129 -2 -14 -48 c-7 -27 -12 -50 -10 -53 7 -6 167 -6
243 1 39 3 90 8 114 10 68 5 166 24 266 50 50 13 108 27 130 31 22 4 45 10 50
14 6 4 39 17 75 30 36 13 83 32 105 44 22 11 44 19 48 18 4 -1 10 5 13 13 3 8
11 12 17 8 6 -3 7 -1 3 5 -8 13 -10 13 -46 2z"/>
<path d="M10900 12695 c-7 -8 -21 -15 -31 -15 -11 0 -19 -5 -19 -11 0 -7 -10
-9 -25 -7 -26 5 -34 -6 -12 -16 6 -3 1 -3 -13 1 -40 10 -55 9 -52 -4 1 -7 -5
-13 -14 -13 -9 0 -23 -8 -30 -17 -13 -17 -13 -17 -14 0 0 18 -20 25 -20 6 0
-6 -7 -9 -15 -5 -10 3 -15 -1 -15 -14 0 -12 -10 -21 -30 -25 -16 -4 -28 -11
-27 -17 1 -6 -4 -13 -12 -16 -8 -3 -11 0 -7 7 4 6 3 11 -2 11 -5 0 -12 -10
-15 -21 -4 -15 -11 -20 -21 -16 -10 4 -16 1 -16 -9 0 -8 4 -13 9 -10 14 9 38
-3 38 -19 0 -8 -4 -15 -9 -15 -4 0 -8 6 -8 14 0 13 -18 15 -76 7 -14 -1 -24
-45 -17 -72 4 -15 11 -18 26 -13 20 6 20 6 4 -10 -15 -16 -18 -16 -33 -2 -22
22 -24 20 -14 -14 5 -18 5 -30 -1 -30 -5 0 -9 -9 -9 -19 0 -10 -7 -22 -16 -25
-12 -5 -13 -10 -5 -19 7 -10 7 -17 0 -24 -7 -7 -10 -35 -7 -72 2 -34 0 -61 -4
-61 -5 0 -6 5 -3 10 3 6 -3 10 -14 10 -12 0 -21 -4 -21 -10 0 -5 5 -10 10 -10
6 0 10 -12 10 -27 0 -22 2 -25 10 -13 8 12 10 11 10 -7 0 -13 -4 -23 -10 -23
-17 0 -11 -28 8 -39 15 -9 15 -12 2 -22 -13 -9 -12 -10 4 -5 13 5 17 2 13 -8
-4 -10 -1 -13 9 -9 10 4 12 0 8 -11 -3 -9 -14 -16 -23 -16 -9 0 -12 -3 -6 -8
12 -8 13 -27 3 -37 -4 -4 -4 -14 -1 -23 4 -14 3 -15 -6 -2 -5 8 -13 11 -17 7
-4 -3 -1 -13 6 -22 10 -12 10 -15 0 -15 -7 0 -19 8 -26 18 -13 16 -15 16 -25
0 -5 -10 -18 -18 -27 -19 -14 0 -13 -2 3 -9 11 -5 14 -9 8 -9 -8 -1 -13 -15
-13 -33 0 -18 -9 -44 -20 -58 -21 -27 -26 -50 -10 -50 6 0 10 -7 10 -15 0 -8
5 -15 11 -15 5 0 7 -5 3 -11 -3 -6 -14 -9 -23 -6 -11 3 -17 -2 -17 -14 0 -12
4 -15 12 -8 8 6 11 0 12 -21 1 -28 -10 -36 -41 -31 -5 1 -6 -3 -2 -9 3 -5 13
-10 21 -10 25 0 -3 -40 -29 -41 -19 0 -20 -1 -4 -8 10 -4 18 -10 18 -14 -2
-19 0 -21 9 -7 7 12 11 10 18 -9 12 -33 -5 -66 -41 -79 -16 -6 -26 -16 -22
-21 3 -6 0 -9 -7 -6 -22 8 -37 -9 -40 -45 -3 -30 0 -35 20 -38 12 -2 22 -10
22 -17 0 -8 7 -18 16 -23 11 -6 15 -17 11 -31 -3 -13 -1 -19 6 -14 7 4 8 0 4
-11 -4 -10 -7 -22 -7 -27 0 -6 -4 -7 -10 -4 -5 3 -10 1 -10 -4 0 -6 7 -11 16
-11 14 0 14 -3 4 -15 -10 -12 -10 -15 0 -15 8 0 11 -3 7 -6 -3 -4 4 -15 16
-25 18 -15 19 -18 5 -19 -9 0 -19 -4 -22 -9 -3 -4 7 -7 22 -5 24 2 25 1 10
-10 -15 -11 -15 -14 7 -30 14 -10 22 -23 19 -28 -3 -4 0 -7 7 -6 7 2 18 -8 26
-22 7 -14 13 -20 13 -13 0 7 11 2 25 -11 26 -24 33 -46 15 -46 -5 0 -10 -9
-10 -20 0 -11 7 -20 15 -20 8 0 15 -4 15 -9 0 -5 14 -14 31 -21 17 -7 35 -23
39 -34 7 -17 9 -18 9 -3 1 24 21 22 21 -3 0 -13 7 -20 20 -20 13 0 24 -10 30
-25 11 -28 22 -34 14 -7 -5 14 -3 14 10 -2 9 -11 16 -26 16 -34 0 -7 5 -10 10
-7 6 3 10 1 10 -4 0 -6 7 -11 16 -11 8 0 12 -5 9 -10 -3 -6 4 -14 17 -19 13
-5 34 -18 47 -30 13 -12 31 -21 40 -22 9 0 11 -3 5 -5 -16 -7 -7 -38 16 -52
14 -8 21 -8 29 2 12 14 64 9 55 -5 -3 -5 4 -9 14 -9 11 0 25 -7 32 -15 15 -18
10 -18 -24 -5 -23 8 -26 7 -26 -13 0 -18 2 -19 10 -7 6 10 10 11 10 2 0 -6 3
-11 8 -10 13 4 92 -32 92 -42 0 -13 27 -13 32 0 2 5 14 7 26 3 18 -4 20 -8 10
-14 -10 -7 -9 -9 5 -9 10 0 15 -5 12 -11 -4 -6 0 -16 9 -22 9 -7 17 -22 19
-35 4 -26 25 -44 41 -35 5 4 7 -1 3 -10 -7 -18 19 -37 41 -30 6 3 12 -1 12 -7
0 -7 7 -10 15 -6 11 4 15 -2 15 -21 0 -14 11 -35 24 -48 14 -13 22 -26 18 -29
-3 -4 1 -4 11 0 10 3 17 1 17 -6 0 -7 5 -6 15 4 8 8 15 19 15 25 0 6 7 11 15
11 11 0 12 -5 5 -25 -5 -13 -6 -27 -1 -29 7 -5 18 13 48 72 3 7 43 -19 43 -28
0 -6 -3 -9 -7 -9 -25 4 -43 -3 -43 -16 0 -8 5 -15 10 -15 6 0 10 -4 10 -10 0
-5 -7 -7 -16 -3 -13 5 -15 2 -9 -17 4 -14 3 -25 -5 -30 -7 -4 -10 -15 -7 -25
4 -9 11 -14 16 -11 5 4 18 -4 28 -17 10 -13 26 -26 36 -30 10 -4 15 -11 12
-17 -3 -5 2 -10 12 -10 10 0 29 -9 43 -20 14 -11 31 -20 38 -20 6 0 12 -3 12
-8 0 -4 18 -18 39 -32 22 -13 38 -28 35 -32 -3 -4 0 -8 5 -8 6 0 11 6 11 14 0
20 46 -2 60 -29 6 -12 19 -21 28 -22 50 -5 122 -29 122 -40 0 -7 3 -12 8 -11
15 4 52 -14 52 -25 0 -8 3 -8 12 1 16 16 23 15 42 -4 9 -8 33 -18 53 -21 21
-4 44 -12 51 -20 8 -7 23 -11 36 -7 14 3 29 -1 39 -10 9 -9 26 -15 38 -13 12
2 38 -2 58 -10 20 -8 44 -16 53 -19 10 -4 15 -11 12 -16 -3 -5 0 -8 7 -7 8 2
32 -1 54 -6 22 -4 47 -7 55 -6 12 1 12 0 1 -7 -11 -8 -10 -14 3 -34 33 -50 86
-223 86 -281 0 -21 5 -47 10 -58 18 -33 20 -130 3 -162 -8 -16 -17 -26 -20
-23 -3 3 -13 -8 -22 -23 -9 -16 -24 -40 -33 -53 -14 -20 -49 -134 -63 -209 -3
-13 -7 -37 -11 -52 -7 -33 -10 -53 -19 -127 -3 -30 -15 -110 -26 -177 -10 -68
-19 -125 -19 -128 0 -3 -41 -5 -91 -5 l-91 0 -135 130 c-311 300 -504 419
-775 478 -46 9 -103 17 -128 16 -68 -1 -170 -16 -170 -24 0 -13 -49 -18 -54
-6 -2 6 -5 1 -5 -12 -1 -12 -7 -25 -15 -28 -8 -3 -12 -12 -9 -20 3 -8 1 -14
-5 -14 -5 0 -12 -12 -15 -27 -3 -16 -8 -40 -11 -55 -5 -23 -2 -28 29 -38 19
-6 35 -16 35 -22 0 -6 -7 -6 -17 2 -10 7 -7 2 7 -11 14 -13 37 -32 50 -42 17
-12 19 -16 7 -13 -10 3 -15 2 -12 -4 3 -6 17 -10 30 -10 13 0 27 -4 30 -10 3
-5 15 -10 26 -10 11 0 22 -7 26 -16 3 -8 12 -13 19 -10 9 3 11 0 7 -11 -4 -10
-2 -14 4 -10 6 4 18 0 26 -8 9 -8 20 -15 25 -15 5 0 34 -20 64 -45 30 -25 73
-51 95 -59 22 -8 60 -32 84 -55 24 -22 47 -41 52 -41 4 0 21 -13 38 -30 17
-16 41 -32 52 -36 28 -9 45 -26 39 -42 -2 -6 4 -12 13 -12 12 0 16 -6 12 -19
-3 -14 -1 -18 9 -14 10 3 14 -3 14 -20 0 -17 7 -28 20 -32 11 -3 20 -13 20
-21 0 -8 4 -13 8 -10 14 9 72 -54 65 -70 -3 -8 2 -23 12 -34 12 -13 14 -23 8
-35 -6 -9 -13 -16 -16 -16 -21 3 -27 -1 -27 -15 0 -9 -6 -14 -12 -11 -7 2 -21
0 -30 -4 -10 -6 -19 -5 -23 1 -4 7 -14 5 -28 -5 -23 -16 -77 -21 -77 -6 0 8
-14 11 -115 26 -22 4 -89 22 -148 41 -60 18 -132 37 -160 40 -29 4 -61 11 -72
17 -11 6 -27 11 -35 12 -8 1 -58 11 -110 23 -239 54 -378 58 -510 12 -137 -46
-205 -130 -216 -265 l-5 -66 33 5 c152 26 464 53 418 37 -17 -6 -20 -9 -7 -10
9 -1 17 -5 17 -11 0 -5 6 -9 13 -7 6 1 12 -7 13 -18 1 -36 15 -64 35 -70 10
-4 17 -10 14 -15 -3 -5 -12 -7 -20 -3 -8 3 -15 0 -15 -6 0 -6 11 -16 23 -20
13 -5 31 -25 41 -45 9 -19 25 -38 36 -41 12 -4 17 -12 13 -22 -4 -11 -2 -14 5
-9 7 4 12 1 12 -8 0 -9 7 -16 15 -16 8 0 15 -5 15 -10 0 -14 79 -89 112 -106
15 -8 28 -19 28 -24 0 -13 37 -50 50 -50 6 0 10 -4 10 -8 0 -10 154 -112 169
-112 6 0 11 -4 11 -10 0 -5 7 -10 15 -10 8 0 15 -3 15 -8 0 -4 17 -16 38 -27
20 -11 52 -30 70 -43 17 -14 32 -21 32 -17 0 4 12 -5 27 -20 15 -15 40 -33 55
-41 16 -8 28 -18 28 -22 0 -4 29 -27 65 -51 36 -23 74 -51 83 -60 9 -10 35
-31 57 -47 22 -16 48 -36 58 -45 9 -9 30 -22 45 -30 15 -7 43 -28 62 -46 19
-19 40 -31 46 -29 7 3 14 -4 17 -15 3 -10 14 -19 24 -19 19 0 60 -39 55 -52
-1 -5 2 -7 7 -5 18 4 81 -79 97 -128 9 -27 22 -57 29 -65 53 -64 79 -288 56
-490 -7 -58 -15 -127 -17 -155 -3 -27 -10 -68 -15 -90 -5 -22 -16 -85 -24
-140 -8 -55 -17 -111 -20 -125 -4 -14 -11 -61 -16 -105 -5 -44 -11 -93 -14
-110 -12 -71 -15 -554 -4 -645 7 -52 11 -119 10 -148 -1 -29 3 -61 9 -72 9
-18 32 -140 45 -245 3 -22 8 -51 11 -65 3 -14 7 -34 9 -45 8 -47 38 -150 45
-155 4 -3 10 -18 13 -35 11 -61 14 -69 25 -73 7 -2 12 -14 12 -27 0 -30 19
-75 40 -95 9 -8 26 -30 39 -48 12 -17 29 -32 37 -32 18 0 46 -25 37 -34 -7 -6
12 -10 36 -7 7 2 10 -2 6 -8 -3 -6 -2 -11 3 -11 6 0 19 -17 29 -37 22 -42 57
-70 93 -75 22 -3 25 1 25 27 0 39 40 102 76 120 55 29 129 12 129 -31 0 -20
18 -17 30 5 18 35 11 86 -41 267 -117 413 -141 562 -143 889 0 132 3 276 8
320 5 44 8 89 8 99 -1 11 4 28 9 39 6 10 12 40 14 65 3 54 33 171 47 189 5 7
7 16 4 21 -3 6 1 25 9 45 13 32 18 51 30 115 3 15 8 38 12 52 3 14 7 30 8 35
0 6 6 23 13 38 7 16 12 36 12 45 0 9 9 32 20 50 11 18 20 43 20 56 0 13 7 41
16 62 9 21 18 50 21 64 2 14 8 27 14 28 5 2 7 8 3 13 -3 5 -1 9 3 9 5 0 10 12
11 27 1 15 6 29 10 32 5 3 14 28 21 54 6 27 18 59 26 70 7 12 26 58 40 102 15
44 31 85 36 91 5 6 6 13 3 17 -3 3 0 15 6 27 6 12 13 29 15 38 1 9 23 85 48
167 25 83 48 166 52 185 4 19 13 44 19 55 7 11 16 32 20 47 3 15 15 32 26 38
11 6 20 14 20 18 0 4 -22 38 -50 76 -56 77 -227 418 -251 498 -12 44 15 35 36
-12 10 -23 23 -44 28 -47 6 -4 7 0 3 8 -4 8 0 5 9 -6 9 -11 19 -31 22 -44 3
-13 14 -32 24 -42 10 -10 30 -42 45 -71 15 -29 61 -106 103 -171 42 -66 75
-125 73 -133 -2 -8 9 -16 25 -20 15 -3 60 -15 98 -25 227 -63 506 -87 789 -69
161 10 214 18 414 57 65 13 90 14 120 5 20 -6 66 -12 102 -13 106 -3 146 -28
174 -107 23 -63 44 -306 51 -572 6 -245 16 -458 40 -845 35 -558 39 -672 39
-1045 0 -394 -5 -477 -45 -760 -21 -145 -76 -381 -116 -499 -9 -25 -19 -59
-23 -76 -13 -48 -80 -236 -100 -280 -45 -94 -82 -190 -84 -212 0 -13 -4 -23
-7 -23 -3 0 -5 -10 -4 -23 1 -12 -1 -24 -5 -27 -15 -10 -70 -140 -70 -164 0
-44 17 -75 38 -69 45 11 153 -63 179 -124 26 -64 72 -41 163 82 393 532 567
969 631 1580 18 166 15 643 -5 900 -9 116 -25 323 -36 460 -33 430 -43 692
-36 990 7 300 11 363 50 750 14 138 27 265 28 284 3 36 27 54 124 93 77 31
320 153 413 205 51 30 103 59 115 64 11 5 35 18 51 29 17 11 37 23 45 27 7 4
41 23 75 43 116 71 304 169 400 209 110 46 171 54 330 47 77 -4 203 -16 280
-27 77 -10 176 -24 220 -30 44 -5 87 -12 96 -13 9 -2 22 -1 28 3 14 9 -6 74
-31 100 -10 11 -18 24 -18 28 -1 16 -107 71 -175 92 -38 11 -99 21 -135 22
-71 3 -269 -20 -285 -32 -5 -4 -28 -10 -50 -14 -74 -13 -396 -160 -417 -190
-4 -5 -8 -7 -8 -3 0 9 -312 -150 -350 -178 -8 -6 -47 -23 -87 -38 -39 -15 -77
-34 -83 -42 -7 -8 -18 -14 -25 -14 -7 0 -41 -14 -76 -31 -92 -44 -158 -75
-207 -95 -23 -9 -47 -23 -53 -31 -6 -7 -21 -13 -33 -13 -11 0 -42 -11 -68 -24
-42 -21 -48 -22 -49 -8 0 11 -2 12 -6 4 -11 -27 -23 2 -23 56 0 80 -16 127
-57 173 -77 85 -165 69 -262 -47 -41 -49 -147 -149 -241 -227 -8 -7 -54 -49
-103 -95 -49 -46 -91 -81 -94 -79 -6 7 41 115 124 283 74 149 76 152 196 275
153 155 859 841 938 911 14 13 52 46 83 73 32 28 73 65 93 83 20 17 42 32 49
32 7 0 14 4 16 8 5 13 100 82 113 82 7 0 18 6 24 14 10 12 8 13 -11 9 -13 -4
-25 -9 -28 -13 -3 -3 -23 -15 -45 -26 -46 -22 -94 -53 -113 -71 -7 -7 -17 -13
-22 -13 -23 0 -185 -138 -363 -310 l-98 -95 -85 -1 c-66 -2 -84 1 -84 12 0 8
-4 14 -9 14 -5 0 -12 18 -16 39 -8 47 -34 73 -72 73 -43 0 -58 -6 -92 -34 -19
-17 -38 -25 -48 -21 -12 5 -14 3 -8 -7 6 -10 4 -12 -8 -7 -11 4 -22 -1 -29
-13 -7 -11 -21 -20 -30 -20 -10 0 -18 -8 -18 -17 0 -12 -3 -14 -8 -6 -10 16
-48 21 -45 6 3 -16 -59 -34 -68 -20 -8 12 -29 0 -28 -16 0 -8 2 -8 6 1 4 10 8
10 19 1 7 -6 20 -9 28 -6 10 4 13 1 10 -8 -3 -8 -18 -12 -37 -11 -45 4 -45 4
-50 24 -4 16 -5 16 -6 0 0 -10 -6 -18 -12 -18 -6 0 -8 -9 -4 -20 5 -14 2 -20
-9 -20 -9 0 -16 7 -16 16 0 8 -5 12 -10 9 -6 -4 -8 -10 -5 -15 3 -5 1 -11 -5
-15 -5 -3 -10 2 -10 12 0 15 -2 16 -10 3 -8 -13 -10 -13 -10 -1 0 11 -4 9 -15
-5 -11 -15 -15 -16 -16 -4 0 8 -5 4 -9 -10 -8 -24 -8 -24 -9 -2 -1 12 -6 22
-12 22 -6 0 -8 -9 -4 -22 5 -17 4 -19 -3 -9 -6 8 -17 11 -27 8 -10 -5 -14 -3
-9 5 7 11 -23 8 -59 -7 -13 -6 -16 -4 -11 9 3 9 10 13 15 10 5 -3 9 -1 9 5 0
6 8 8 18 5 14 -5 14 -3 -2 10 -11 9 -28 16 -37 16 -10 0 -20 8 -22 18 -3 12
-5 11 -6 -6 -1 -14 -6 -22 -13 -19 -7 2 -12 11 -10 21 4 22 -15 21 -21 -1 -4
-15 -6 -15 -12 4 -4 12 -16 25 -26 28 -11 4 -19 16 -19 27 0 18 -2 19 -17 7
-15 -13 -16 -11 -11 14 4 19 1 30 -9 34 -8 3 -12 12 -9 19 3 8 1 14 -4 14 -6
0 -10 5 -10 10 0 6 6 10 14 10 9 0 12 8 8 26 -3 19 -1 25 7 20 6 -4 11 -1 11
9 0 9 -4 13 -10 10 -5 -3 -10 1 -10 9 0 8 5 18 10 21 6 3 7 17 4 29 -5 23 16
56 37 56 5 0 11 11 15 25 3 14 13 25 23 25 11 0 12 3 4 8 -8 5 -9 13 -3 22 5
8 12 11 17 7 4 -5 13 7 19 25 6 18 17 32 23 31 6 -2 11 5 11 15 1 17 30 64 30
47 0 -5 6 0 14 10 8 11 12 24 9 28 -3 5 3 6 14 3 12 -4 25 -1 33 9 7 8 19 15
27 15 12 0 14 7 9 33 -4 22 -3 27 4 17 8 -13 11 -12 24 5 9 11 16 23 16 27 0
3 10 4 23 1 18 -4 19 -3 7 6 -12 9 -9 10 12 5 27 -6 65 16 50 30 -3 4 4 9 16
13 12 3 22 10 22 15 0 6 6 8 14 5 8 -3 17 1 20 10 4 9 9 13 13 9 4 -3 13 8 20
25 9 21 18 29 28 25 9 -3 15 0 15 10 0 10 6 14 14 11 8 -3 16 -3 18 1 2 4 17
14 33 24 17 9 36 29 44 45 8 15 18 30 23 31 4 2 8 14 8 26 0 12 6 30 14 41 7
11 16 36 19 55 3 19 12 54 21 77 9 24 24 75 35 114 l19 71 -54 -7 c-39 -5 -54
-3 -54 6 0 8 -4 8 -15 -1 -11 -9 -19 -10 -26 -3 -11 11 3 19 52 28 27 5 38 15
16 15 -9 0 -14 6 -12 13 3 6 -4 23 -15 37 -11 14 -19 19 -18 11 2 -7 -3 -16
-10 -18 -9 -3 -12 2 -10 13 2 13 -2 18 -14 16 -10 -2 -18 2 -18 8 0 5 -10 10
-22 10 -41 0 -54 15 -40 45 16 35 15 46 -2 16 -15 -27 -56 -37 -56 -14 0 8
-14 19 -31 25 -20 7 -27 13 -19 18 8 5 2 10 -15 14 -14 4 -30 4 -36 0 -11 -6
-39 13 -39 27 0 5 10 9 23 9 20 1 20 2 4 11 -9 5 -22 7 -28 3 -8 -4 -9 1 -4
15 4 15 2 21 -8 21 -8 0 -28 7 -46 16 -17 9 -39 13 -47 10 -8 -3 -12 -2 -9 4
3 6 0 10 -7 10 -10 0 -9 3 2 10 8 5 11 13 6 17 -4 4 -14 -1 -22 -11 -8 -11
-14 -15 -14 -9 0 6 -8 13 -18 15 -17 5 -27 38 -12 38 5 0 6 24 1 50 -1 3 -6
-2 -11 -10 -8 -13 -10 -12 -10 3 0 9 -7 17 -15 17 -7 0 -19 8 -25 18 -8 12
-13 14 -17 4 -6 -16 -33 3 -33 24 0 8 -7 11 -17 8 -10 -2 -3 3 15 12 17 10 32
25 31 33 0 10 -2 12 -6 4 -3 -10 -8 -9 -20 2 -8 8 -19 12 -25 9 -6 -4 -15 0
-20 7 -7 11 -11 11 -15 2 -3 -10 -9 -10 -26 -1 -22 11 -85 28 -119 31 -10 1
-18 4 -18 8 0 8 -44 21 -83 24 -16 1 -33 8 -38 16 -6 10 -9 10 -9 2 0 -7 -8
-13 -17 -13 -16 0 -16 2 -3 11 12 8 10 9 -7 4 -12 -3 -38 -2 -58 4 -25 7 -35
6 -35 -2 0 -6 -6 -3 -13 8 -9 12 -19 15 -28 10 -20 -13 -60 -15 -81 -4 -13 7
-18 6 -18 -3 0 -8 -3 -9 -8 -3 -4 6 -41 11 -82 13 -41 2 -76 7 -78 13 -2 5
-21 9 -43 9 -21 0 -39 4 -39 9 0 10 -40 8 -58 -3 -7 -4 -12 -3 -12 2 0 5 -22
9 -50 8 -27 -1 -45 1 -39 5 13 7 -76 22 -128 22 -22 0 -33 4 -33 13 0 8 -8 14
-17 13 -11 0 -13 -3 -5 -6 6 -2 12 -9 12 -15 0 -6 -9 -3 -20 7 -10 9 -26 15
-34 12 -8 -3 -16 -1 -19 6 -2 6 -20 11 -40 11 -20 0 -37 4 -37 9 0 4 -4 5 -10
2 -5 -3 -10 -1 -10 6 0 7 -11 10 -30 7 -16 -3 -30 -1 -30 4 0 4 -3 7 -7 7 -24
-4 -43 4 -66 26 -18 18 -27 22 -30 13 -4 -10 -8 -10 -16 2 -6 8 -11 11 -11 5
0 -5 -5 -3 -10 5 -8 12 -12 13 -19 2 -6 -11 -10 -10 -15 3 -3 10 -12 15 -21
11 -8 -3 -20 1 -27 8 -7 7 -19 11 -26 8 -6 -2 -12 3 -12 11 0 10 -9 13 -27 11
-15 -1 -31 3 -35 9 -6 9 -8 9 -8 0 0 -8 -15 -2 -37 13 -24 16 -39 21 -43 13
-4 -6 -10 -1 -14 13 -5 18 -8 20 -15 9 -7 -11 -14 -10 -42 5 -19 11 -36 22
-39 26 -3 3 -19 9 -35 13 -58 13 -65 16 -65 31 0 8 -5 14 -11 14 -6 0 -17 7
-25 15 -9 8 -24 15 -35 15 -11 0 -18 4 -14 9 3 5 -4 12 -14 16 -11 3 -23 15
-26 26 -7 20 -25 27 -25 9 0 -15 -22 -12 -68 10 -23 11 -42 27 -42 35 0 8 -9
15 -20 15 -11 0 -20 5 -20 11 0 5 -4 7 -10 4 -5 -3 -10 0 -10 8 0 18 -44 38
-67 31 -13 -4 -15 -3 -5 4 10 7 3 16 -31 36 -25 14 -52 26 -61 26 -9 0 -13 7
-11 18 2 13 -4 18 -23 20 -15 1 -30 9 -35 17 -4 8 -17 15 -27 15 -12 0 -20 7
-20 17 0 9 -3 13 -7 10 -3 -4 -13 2 -20 13 -10 14 -21 19 -34 15 -14 -5 -19
-1 -19 14 0 25 -20 39 -20 14 -1 -14 -4 -11 -15 9 -8 15 -25 30 -37 34 -26 7
-43 23 -76 72 -13 17 -28 32 -33 32 -17 0 -69 43 -63 52 3 4 -1 8 -9 8 -8 0
-18 7 -21 16 -3 8 -10 13 -14 10 -14 -9 -38 16 -52 54 -8 19 -24 45 -37 57
-26 25 -30 38 -9 30 9 -4 13 -1 10 6 -2 7 -17 18 -33 24 -25 9 -28 14 -23 39
6 29 6 29 12 5 6 -25 30 -42 30 -21 0 6 -4 8 -10 5 -6 -4 -10 9 -10 32 0 21
-4 34 -8 28 -12 -16 -32 -16 -32 0 0 26 -1 30 -17 47 -8 10 -13 24 -9 33 3 9
2 13 -4 10 -12 -7 -33 42 -24 56 3 5 -2 9 -10 9 -9 0 -13 7 -11 20 2 11 -1 20
-7 20 -7 0 -4 6 5 13 17 12 19 48 4 63 -3 4 -2 15 3 24 8 15 6 17 -10 13 -12
-3 -20 0 -20 7 0 6 -7 18 -16 27 -8 9 -13 22 -9 31 3 8 -1 22 -9 31 -20 23 -9
80 18 91 17 7 18 9 4 9 -10 1 -18 5 -18 11 0 5 -7 7 -15 3 -11 -4 -19 4 -28
26 -6 17 -18 31 -27 31 -13 0 -13 2 -1 9 12 8 11 13 -10 31 -16 14 -20 23 -11
26 6 3 12 10 12 15 0 5 -6 8 -12 7 -7 -2 -12 3 -10 11 5 24 -7 61 -21 61 -6 0
-19 5 -27 10 -13 9 -13 11 0 20 10 6 11 10 3 10 -7 0 -10 7 -7 15 7 18 -9 19
-38 4 -12 -6 -18 -7 -14 -1 3 5 -1 12 -9 16 -8 3 -17 1 -20 -4 -6 -10 -39 18
-48 41 -4 10 -6 10 -6 2 -1 -7 -8 -13 -16 -13 -9 0 -12 6 -8 17 5 12 2 15 -8
11 -21 -8 -59 9 -59 27 0 8 7 15 16 15 8 0 12 4 9 10 -3 5 -1 18 4 29 9 16 6
19 -21 25 -17 3 -47 6 -67 7 -32 0 -33 1 -13 9 12 5 22 12 22 14 0 3 -7 3 -15
0 -18 -7 -55 34 -48 53 3 7 0 13 -6 13 -6 0 -10 -5 -8 -11 4 -20 -21 -21 -27
-1 -6 18 -33 33 -64 36 -8 1 -19 9 -26 19 -16 21 -20 21 -36 2z m96 -48 c4 -4
3 -7 -2 -8 -5 0 -19 -2 -31 -3 -12 -2 -19 2 -17 9 5 12 39 13 50 2z m-126 -17
c0 -5 -5 -10 -11 -10 -5 0 -7 5 -4 10 3 6 8 10 11 10 2 0 4 -4 4 -10z m270
-104 c0 -3 -4 -8 -10 -11 -5 -3 -10 -1 -10 4 0 6 5 11 10 11 6 0 10 -2 10 -4z
m-715 -276 c-3 -5 -1 -10 6 -10 7 0 10 -2 7 -5 -7 -8 -38 5 -38 16 0 5 7 9 16
9 8 0 12 -4 9 -10z m55 -19 c0 -5 -7 -11 -15 -15 -15 -5 -20 5 -8 17 9 10 23
9 23 -2z m1170 -570 c0 -5 3 -18 6 -28 5 -16 4 -16 -10 1 -18 23 -20 36 -6 36
6 0 10 -4 10 -9z m-1400 -285 c0 -2 -7 -7 -16 -10 -8 -3 -12 -2 -9 4 6 10 25
14 25 6z m20 -180 c0 -3 -4 -8 -10 -11 -5 -3 -10 -1 -10 4 0 6 5 11 10 11 6 0
10 -2 10 -4z m2130 -306 c0 -5 -5 -10 -11 -10 -5 0 -7 5 -4 10 3 6 8 10 11 10
2 0 4 -4 4 -10z m-1430 -440 c0 -5 -7 -7 -15 -4 -8 4 -12 10 -9 15 6 11 24 2
24 -11z m625 -2380 c3 -5 2 -10 -4 -10 -5 0 -13 5 -16 10 -3 6 -2 10 4 10 5 0
13 -4 16 -10z m130 -170 c3 -5 1 -10 -4 -10 -6 0 -11 5 -11 10 0 6 2 10 4 10
3 0 8 -4 11 -10z m2923 -385 c1 -16 -1 -17 -8 -5 -9 13 -11 13 -20 0 -9 -13
-11 -13 -20 0 -8 13 -10 13 -10 -2 0 -22 -50 -49 -78 -41 -29 7 -28 17 3 33
13 7 22 17 18 23 -3 5 5 3 18 -4 22 -11 23 -11 10 4 -12 15 -9 17 36 14 41 -2
49 -5 51 -22z"/>
<path d="M10600 12600 c0 -5 4 -10 9 -10 6 0 13 5 16 10 3 6 -1 10 -9 10 -9 0
-16 -4 -16 -10z"/>
<path d="M11210 12470 c0 -5 5 -10 10 -10 6 0 10 5 10 10 0 6 -4 10 -10 10 -5
0 -10 -4 -10 -10z"/>
<path d="M10397 12446 c-7 -17 1 -26 22 -26 14 0 14 2 1 10 -13 9 -13 11 0 20
13 8 13 10 -1 10 -9 0 -19 -6 -22 -14z"/>
<path d="M12051 12437 c-16 -16 -14 -20 17 -55 49 -57 357 -182 614 -251 238
-64 540 -115 863 -147 251 -25 689 -22 950 5 437 46 799 120 1085 224 114 41
348 146 356 159 11 17 -3 19 -42 5 -199 -74 -432 -147 -529 -166 -22 -5 -85
-18 -140 -29 -385 -79 -707 -110 -1085 -105 -124 1 -250 5 -280 8 -207 19
-301 28 -340 30 -25 2 -94 10 -155 19 -60 9 -132 19 -160 22 -27 3 -57 8 -65
11 -8 3 -42 9 -75 13 -213 28 -480 99 -840 223 -122 42 -159 49 -174 34z"/>
<path d="M11360 12400 c0 -5 5 -10 11 -10 5 0 7 5 4 10 -3 6 -8 10 -11 10 -2
0 -4 -4 -4 -10z"/>
<path d="M10342 12060 c-7 -11 -8 -20 -3 -20 9 0 24 30 18 36 -1 2 -8 -6 -15
-16z"/>
<path d="M10220 11536 c0 -2 7 -7 16 -10 8 -3 12 -2 9 4 -6 10 -25 14 -25 6z"/>
<path d="M10210 11070 c0 -5 5 -10 11 -10 5 0 7 5 4 10 -3 6 -8 10 -11 10 -2
0 -4 -4 -4 -10z"/>
<path d="M10300 10950 c0 -5 5 -10 10 -10 6 0 10 5 10 10 0 6 -4 10 -10 10 -5
0 -10 -4 -10 -10z"/>
<path d="M10638 10603 c7 -3 16 -2 19 1 4 3 -2 6 -13 5 -11 0 -14 -3 -6 -6z"/>
<path d="M11270 10110 c0 -5 5 -10 10 -10 6 0 10 5 10 10 0 6 -4 10 -10 10 -5
0 -10 -4 -10 -10z"/>
<path d="M11660 9830 c0 -5 5 -10 11 -10 5 0 7 5 4 10 -3 6 -8 10 -11 10 -2 0
-4 -4 -4 -10z"/>
<path d="M15390 9744 c-14 -8 -17 -13 -7 -10 10 3 25 6 33 6 8 0 14 5 14 10 0
14 -10 12 -40 -6z"/>
<path d="M15348 8323 c7 -3 16 -2 19 1 4 3 -2 6 -13 5 -11 0 -14 -3 -6 -6z"/>
<path d="M8134 4145 c-3 -19 -10 -38 -15 -41 -5 -3 -9 -17 -9 -31 0 -14 -9
-40 -20 -58 -11 -18 -19 -41 -18 -51 4 -29 -12 -161 -27 -239 -8 -38 -24 -146
-36 -240 -11 -93 -22 -172 -24 -175 -2 -3 -6 -35 -10 -70 -3 -36 -13 -87 -21
-115 -7 -27 -16 -63 -18 -80 -3 -16 -11 -57 -19 -90 -49 -209 -70 -292 -78
-310 -12 -27 -49 -155 -44 -155 2 0 -12 -45 -30 -100 -19 -55 -37 -114 -39
-132 -6 -49 -37 -138 -48 -138 -5 0 -7 -4 -3 -9 3 -5 1 -20 -4 -33 -18 -47
-65 -242 -81 -338 -6 -36 -13 -76 -16 -90 -2 -14 -7 -41 -10 -60 -10 -65 -21
-111 -31 -140 -3 -8 -7 -24 -8 -35 -4 -32 -14 -83 -36 -180 -11 -49 -25 -121
-30 -160 -6 -38 -13 -77 -16 -85 -8 -19 -11 -35 -17 -90 -2 -25 -9 -63 -14
-85 -16 -64 -25 -127 -42 -300 -6 -60 -15 -130 -20 -155 -5 -25 -11 -103 -14
-174 -3 -101 -1 -136 10 -158 l15 -28 232 0 232 0 0 88 c1 88 12 303 20 377 2
22 7 94 10 160 7 131 29 394 45 545 31 285 105 506 186 559 32 20 52 24 143
26 58 2 153 -3 211 -10 104 -14 381 -37 680 -55 85 -5 214 -14 285 -20 533
-42 1986 -93 3000 -105 253 -3 694 -8 980 -13 655 -9 908 -9 1210 1 132 4 339
9 460 12 834 20 1708 49 2140 70 421 21 538 27 745 41 358 23 885 63 980 74
47 5 137 14 200 20 163 16 514 67 584 86 95 25 168 1 247 -83 129 -135 200
-365 260 -838 19 -152 31 -254 78 -665 29 -252 32 -270 45 -270 10 0 19 32 17
68 0 6 -1 53 -1 104 -1 60 -5 87 -11 77 -6 -10 -9 -4 -9 21 0 28 3 32 11 20 9
-13 10 -13 6 2 -3 9 -9 65 -12 125 -12 214 -14 249 -20 308 -4 33 -10 72 -15
87 -5 15 -6 59 -3 97 3 38 2 78 -3 88 -4 10 -9 38 -10 63 -4 78 -13 162 -30
270 -9 58 -17 125 -18 150 0 25 -5 48 -9 51 -4 3 -9 37 -12 75 -2 38 -11 98
-20 134 -9 36 -20 83 -24 105 -13 65 -42 154 -52 160 -5 4 -9 14 -9 24 0 10
-7 24 -15 31 -8 7 -15 20 -15 30 0 10 -6 23 -14 29 -8 7 -18 26 -21 42 -4 17
-9 28 -13 25 -7 -8 -38 36 -34 49 2 5 1 7 -3 3 -15 -15 -33 21 -46 90 -7 39
-16 67 -20 61 -8 -14 -19 26 -14 52 2 11 0 17 -6 14 -10 -7 -12 10 -9 63 1 18
-3 32 -10 32 -6 0 -8 -5 -4 -12 5 -7 3 -8 -5 -3 -9 5 -10 10 -2 18 16 16 13
27 -6 27 -12 0 -14 3 -7 8 18 11 -5 122 -25 122 -10 0 -12 3 -5 8 6 4 9 16 7
27 -2 11 -3 48 -4 83 0 34 -3 62 -7 62 -13 0 -20 371 -9 500 18 215 26 474 15
486 -10 9 -48 -25 -59 -53 -16 -43 -69 -455 -69 -540 0 -90 39 -303 95 -523
15 -58 32 -124 38 -147 6 -24 14 -43 18 -43 5 0 6 -6 3 -13 -2 -7 5 -39 16
-72 12 -33 30 -111 41 -172 27 -154 16 -224 -44 -299 -29 -36 -59 -60 -100
-78 -31 -15 -55 -31 -52 -36 3 -5 0 -12 -7 -17 -14 -8 -150 -34 -156 -29 -1 2
29 12 67 22 90 23 84 32 -6 11 -280 -65 -1517 -162 -2438 -192 -104 -4 -264
-10 -355 -14 -91 -4 -295 -10 -455 -12 -464 -6 -1956 -3 -2115 5 -151 7 -205
7 -305 1 -78 -6 -1161 -6 -1200 -1 -16 2 -210 7 -430 12 -414 7 -430 8 -555
17 -41 3 -142 9 -225 12 -200 8 -333 15 -370 20 -16 2 -77 7 -135 10 -58 3
-113 8 -124 11 -10 4 -22 0 -27 -7 -6 -10 -9 -11 -9 -1 0 6 -8 12 -17 12 -16
0 -16 -2 -3 -11 11 -8 8 -9 -15 -5 -16 4 -67 8 -112 10 -46 3 -92 7 -103 11
-12 4 -27 1 -35 -5 -9 -7 -23 -9 -37 -4 -13 4 -43 9 -68 9 -41 2 -144 11 -230
20 -113 11 -276 23 -434 30 -65 3 -123 8 -129 12 -7 4 -38 8 -69 9 -32 0 -59
2 -60 3 -2 2 -73 4 -158 6 -85 2 -185 8 -222 13 -42 5 -68 5 -68 -1 0 -5 -10
-6 -22 -2 -63 19 -104 24 -228 30 -125 6 -204 11 -305 21 -22 2 -67 6 -100 9
-72 6 -155 24 -155 34 0 4 -8 7 -18 8 -21 2 -123 61 -164 96 -43 36 -54 112
-33 250 8 60 17 113 19 116 3 4 38 140 80 303 42 163 88 327 102 365 23 58 27
85 28 188 0 66 -5 167 -13 225 -8 58 -15 128 -17 156 -1 27 -9 74 -18 104 -9
31 -16 90 -16 138 0 59 -4 88 -14 96 -15 13 -46 88 -46 114 0 9 -13 30 -29 45
l-30 28 -7 -36z"/>
<path d="M12680 3050 c-12 -7 -12 -13 -4 -27 14 -23 45 -27 89 -13 41 13 49
40 10 32 -15 -2 -25 0 -25 7 0 13 -49 14 -70 1z"/>
<path d="M14510 1827 c0 -35 104 -113 129 -97 18 11 9 24 -51 70 -51 41 -78
50 -78 27z"/>
</g>
</svg>
